<mxfile host="app.diagrams.net" modified="2023-07-24T16:45:11.430Z" agent="Mozilla/5.0 (Windows NT 10.0; Win64; x64) AppleWebKit/537.36 (KHTML, like Gecko) Chrome/114.0.0.0 Safari/537.36" etag="VHBQxmCR5NjZiH3g8tFL" version="21.6.3" type="device">
  <diagram name="Page-1" id="zGoeb6izI2oD0neoibkK">
    <mxGraphModel dx="2085" dy="674" grid="1" gridSize="10" guides="1" tooltips="1" connect="1" arrows="1" fold="1" page="1" pageScale="1" pageWidth="850" pageHeight="1100" math="0" shadow="0">
      <root>
        <mxCell id="0" />
        <mxCell id="1" parent="0" />
        <mxCell id="83Y6sE2fgNDUJ6dQEa-j-10" style="edgeStyle=orthogonalEdgeStyle;rounded=0;orthogonalLoop=1;jettySize=auto;html=1;exitX=1;exitY=0.5;exitDx=0;exitDy=0;entryX=0;entryY=0.5;entryDx=0;entryDy=0;" edge="1" parent="1" source="83Y6sE2fgNDUJ6dQEa-j-1" target="83Y6sE2fgNDUJ6dQEa-j-2">
          <mxGeometry relative="1" as="geometry" />
        </mxCell>
        <mxCell id="83Y6sE2fgNDUJ6dQEa-j-1" value="Guest" style="rounded=0;whiteSpace=wrap;html=1;" vertex="1" parent="1">
          <mxGeometry x="-60" y="330" width="120" height="60" as="geometry" />
        </mxCell>
        <mxCell id="83Y6sE2fgNDUJ6dQEa-j-11" style="edgeStyle=orthogonalEdgeStyle;rounded=0;orthogonalLoop=1;jettySize=auto;html=1;exitX=0.5;exitY=0;exitDx=0;exitDy=0;entryX=0;entryY=0.5;entryDx=0;entryDy=0;" edge="1" parent="1" source="83Y6sE2fgNDUJ6dQEa-j-2" target="83Y6sE2fgNDUJ6dQEa-j-5">
          <mxGeometry relative="1" as="geometry" />
        </mxCell>
        <mxCell id="83Y6sE2fgNDUJ6dQEa-j-12" style="edgeStyle=orthogonalEdgeStyle;rounded=0;orthogonalLoop=1;jettySize=auto;html=1;exitX=0.75;exitY=0;exitDx=0;exitDy=0;entryX=0;entryY=0.5;entryDx=0;entryDy=0;" edge="1" parent="1" source="83Y6sE2fgNDUJ6dQEa-j-2" target="83Y6sE2fgNDUJ6dQEa-j-3">
          <mxGeometry relative="1" as="geometry" />
        </mxCell>
        <mxCell id="83Y6sE2fgNDUJ6dQEa-j-14" style="edgeStyle=orthogonalEdgeStyle;rounded=0;orthogonalLoop=1;jettySize=auto;html=1;exitX=0.75;exitY=1;exitDx=0;exitDy=0;entryX=0;entryY=0.5;entryDx=0;entryDy=0;" edge="1" parent="1" source="83Y6sE2fgNDUJ6dQEa-j-2" target="83Y6sE2fgNDUJ6dQEa-j-4">
          <mxGeometry relative="1" as="geometry" />
        </mxCell>
        <mxCell id="83Y6sE2fgNDUJ6dQEa-j-15" style="edgeStyle=orthogonalEdgeStyle;rounded=0;orthogonalLoop=1;jettySize=auto;html=1;exitX=0.5;exitY=1;exitDx=0;exitDy=0;entryX=0;entryY=0.5;entryDx=0;entryDy=0;" edge="1" parent="1" source="83Y6sE2fgNDUJ6dQEa-j-2" target="83Y6sE2fgNDUJ6dQEa-j-8">
          <mxGeometry relative="1" as="geometry" />
        </mxCell>
        <mxCell id="83Y6sE2fgNDUJ6dQEa-j-16" style="edgeStyle=orthogonalEdgeStyle;rounded=0;orthogonalLoop=1;jettySize=auto;html=1;exitX=0.25;exitY=1;exitDx=0;exitDy=0;entryX=0;entryY=0.5;entryDx=0;entryDy=0;" edge="1" parent="1" source="83Y6sE2fgNDUJ6dQEa-j-2" target="83Y6sE2fgNDUJ6dQEa-j-6">
          <mxGeometry relative="1" as="geometry" />
        </mxCell>
        <mxCell id="83Y6sE2fgNDUJ6dQEa-j-2" value="Homepage" style="rounded=0;whiteSpace=wrap;html=1;" vertex="1" parent="1">
          <mxGeometry x="80" y="330" width="120" height="60" as="geometry" />
        </mxCell>
        <mxCell id="83Y6sE2fgNDUJ6dQEa-j-17" style="edgeStyle=orthogonalEdgeStyle;rounded=0;orthogonalLoop=1;jettySize=auto;html=1;exitX=1;exitY=0.5;exitDx=0;exitDy=0;entryX=0;entryY=0.5;entryDx=0;entryDy=0;" edge="1" parent="1" source="83Y6sE2fgNDUJ6dQEa-j-3" target="83Y6sE2fgNDUJ6dQEa-j-7">
          <mxGeometry relative="1" as="geometry" />
        </mxCell>
        <mxCell id="83Y6sE2fgNDUJ6dQEa-j-3" value="Login" style="rounded=0;whiteSpace=wrap;html=1;" vertex="1" parent="1">
          <mxGeometry x="230" y="280" width="120" height="60" as="geometry" />
        </mxCell>
        <mxCell id="83Y6sE2fgNDUJ6dQEa-j-4" value="Sign up" style="rounded=0;whiteSpace=wrap;html=1;" vertex="1" parent="1">
          <mxGeometry x="230" y="380" width="120" height="60" as="geometry" />
        </mxCell>
        <mxCell id="83Y6sE2fgNDUJ6dQEa-j-5" value="Course List" style="rounded=0;whiteSpace=wrap;html=1;" vertex="1" parent="1">
          <mxGeometry x="230" y="190" width="120" height="60" as="geometry" />
        </mxCell>
        <mxCell id="83Y6sE2fgNDUJ6dQEa-j-6" value="Post List" style="rounded=0;whiteSpace=wrap;html=1;" vertex="1" parent="1">
          <mxGeometry x="230" y="550" width="120" height="60" as="geometry" />
        </mxCell>
        <mxCell id="83Y6sE2fgNDUJ6dQEa-j-7" value="Reset Password" style="rounded=0;whiteSpace=wrap;html=1;" vertex="1" parent="1">
          <mxGeometry x="380" y="280" width="120" height="60" as="geometry" />
        </mxCell>
        <mxCell id="83Y6sE2fgNDUJ6dQEa-j-8" value="Leader Board" style="rounded=0;whiteSpace=wrap;html=1;" vertex="1" parent="1">
          <mxGeometry x="230" y="460" width="120" height="60" as="geometry" />
        </mxCell>
        <mxCell id="83Y6sE2fgNDUJ6dQEa-j-18" value="Student" style="rounded=0;whiteSpace=wrap;html=1;" vertex="1" parent="1">
          <mxGeometry x="-120" y="830" width="120" height="60" as="geometry" />
        </mxCell>
        <mxCell id="83Y6sE2fgNDUJ6dQEa-j-19" value="Homepage" style="rounded=0;whiteSpace=wrap;html=1;" vertex="1" parent="1">
          <mxGeometry x="40" y="830" width="120" height="60" as="geometry" />
        </mxCell>
        <mxCell id="83Y6sE2fgNDUJ6dQEa-j-20" value="Course List" style="rounded=0;whiteSpace=wrap;html=1;" vertex="1" parent="1">
          <mxGeometry x="200" y="670" width="120" height="60" as="geometry" />
        </mxCell>
        <mxCell id="83Y6sE2fgNDUJ6dQEa-j-21" value="Post List" style="rounded=0;whiteSpace=wrap;html=1;" vertex="1" parent="1">
          <mxGeometry x="200" y="750" width="120" height="60" as="geometry" />
        </mxCell>
        <mxCell id="83Y6sE2fgNDUJ6dQEa-j-22" value="User Profile Edit" style="rounded=0;whiteSpace=wrap;html=1;" vertex="1" parent="1">
          <mxGeometry x="350" y="1080" width="120" height="60" as="geometry" />
        </mxCell>
        <mxCell id="83Y6sE2fgNDUJ6dQEa-j-23" value="My Course" style="rounded=0;whiteSpace=wrap;html=1;" vertex="1" parent="1">
          <mxGeometry x="200" y="940" width="120" height="60" as="geometry" />
        </mxCell>
        <mxCell id="83Y6sE2fgNDUJ6dQEa-j-24" value="Leader Board" style="rounded=0;whiteSpace=wrap;html=1;" vertex="1" parent="1">
          <mxGeometry x="200" y="830" width="120" height="60" as="geometry" />
        </mxCell>
        <mxCell id="83Y6sE2fgNDUJ6dQEa-j-25" value="User Profile" style="rounded=0;whiteSpace=wrap;html=1;" vertex="1" parent="1">
          <mxGeometry x="200" y="1080" width="120" height="60" as="geometry" />
        </mxCell>
        <mxCell id="83Y6sE2fgNDUJ6dQEa-j-26" value="Change Password" style="rounded=0;whiteSpace=wrap;html=1;" vertex="1" parent="1">
          <mxGeometry x="490" y="1120" width="120" height="60" as="geometry" />
        </mxCell>
        <mxCell id="83Y6sE2fgNDUJ6dQEa-j-27" value="Reset Password" style="rounded=0;whiteSpace=wrap;html=1;" vertex="1" parent="1">
          <mxGeometry x="490" y="1040" width="120" height="60" as="geometry" />
        </mxCell>
        <mxCell id="83Y6sE2fgNDUJ6dQEa-j-33" value="Post Details" style="rounded=0;whiteSpace=wrap;html=1;" vertex="1" parent="1">
          <mxGeometry x="350" y="750" width="120" height="60" as="geometry" />
        </mxCell>
        <mxCell id="83Y6sE2fgNDUJ6dQEa-j-34" value="Course Details" style="rounded=0;whiteSpace=wrap;html=1;" vertex="1" parent="1">
          <mxGeometry x="350" y="670" width="120" height="60" as="geometry" />
        </mxCell>
        <mxCell id="83Y6sE2fgNDUJ6dQEa-j-35" value="VIew Lesson List" style="rounded=0;whiteSpace=wrap;html=1;" vertex="1" parent="1">
          <mxGeometry x="350" y="940" width="120" height="60" as="geometry" />
        </mxCell>
        <mxCell id="83Y6sE2fgNDUJ6dQEa-j-36" value="Quiz Lesson" style="rounded=0;whiteSpace=wrap;html=1;" vertex="1" parent="1">
          <mxGeometry x="480" y="860" width="120" height="60" as="geometry" />
        </mxCell>
        <mxCell id="83Y6sE2fgNDUJ6dQEa-j-37" value="Quiz Handle" style="rounded=0;whiteSpace=wrap;html=1;" vertex="1" parent="1">
          <mxGeometry x="630" y="800" width="120" height="60" as="geometry" />
        </mxCell>
        <mxCell id="83Y6sE2fgNDUJ6dQEa-j-38" value="Quiz Review" style="rounded=0;whiteSpace=wrap;html=1;" vertex="1" parent="1">
          <mxGeometry x="630" y="920" width="120" height="60" as="geometry" />
        </mxCell>
        <mxCell id="83Y6sE2fgNDUJ6dQEa-j-41" value="Lesson View" style="rounded=0;whiteSpace=wrap;html=1;" vertex="1" parent="1">
          <mxGeometry x="490" y="970" width="120" height="60" as="geometry" />
        </mxCell>
      </root>
    </mxGraphModel>
  </diagram>
</mxfile>
